# xmcd
#
# Track frame offsets:
#	150
#	11885
#	24959
#	50878
#	63062
#	84438
#	101354
#	117213
#	136267
#	152424
#	166301
#	178722
#	191357
#	203588
#	236971
#	252250
#	262245
#	277611
#	296004
#	313326
#	329719
#
# Disc length: 4660 seconds
#
# Revision: 1
# Processed by: cddbd v1.5.2PL0 Copyright (c) Steve Scherf et al.
# Submitted via: audiograbber 1.83.01
#
DISCID=29123215
DTITLE=Don Luloutoo - Aethermix 2005 - Bluegrass for Beginners
DYEAR=2005
DGENRE=Terror
TTITLE0=Robert Earl Keen - I'm Going To Town
TTITLE1=Emmylou Harris - Sister's Coming Home
TTITLE2=Dixie Chicks - Travelin' Soldier
TTITLE3=Onion Creek Crawdaddies - Dirty Angel
TTITLE4=Alison Krauss and Union Station - Oh, Atlanta
TTITLE5=The Del McCoury Band - My Love Will Not Change
TTITLE6=Robert Earl Keen - Think It Over One Time
TTITLE7=Alison Krauss and Union Station - I Am A Man of Constant Sorrow
TTITLE8=Nickel Creek - This Side
TTITLE9=Rhonda Vincent - Lonesome Wind Blues
TTITLE10=Red Stick Ramblers - Stay All Night
TTITLE11=The Del McCoury Band - Same Kind of Crazy
TTITLE12=Patty Loveless - Pretty Little Miss
TTITLE13=Robert Earl Keen - Dreadful Selfish Crime
TTITLE14=Alison Kraus and Union Station - Let Me Touch You For A While
TTITLE15=Onion Creek Crawdaddies - Sunflower Hill Two-Step
TTITLE16=Emmylou Harris - Bluebird Wine
TTITLE17=The Del McCoury Band - 1952 Vincent Black Lightening
TTITLE18=Alison Krauss - Baby, Now That I've Found You
TTITLE19=The Greencards - Life's A Freeway
TTITLE20=Robert Earl Keen - I'm Comin Home
EXTD=
EXTT0=
EXTT1=
EXTT2=
EXTT3=
EXTT4=
EXTT5=
EXTT6=
EXTT7=
EXTT8=
EXTT9=
EXTT10=
EXTT11=
EXTT12=
EXTT13=
EXTT14=
EXTT15=
EXTT16=
EXTT17=
EXTT18=
EXTT19=
EXTT20=
PLAYORDER=
